<svg width="31" height="28" viewBox="0 0 31 28" fill="none" xmlns="http://www.w3.org/2000/svg">
<path d="M28.6984 -0.00599996C28.3157 0.0212484 27.94 0.109113 27.586 0.254166H27.5812C27.2414 0.386 25.6258 1.051 23.1697 2.059L14.3681 5.68617C8.0524 8.28783 1.84406 10.8498 1.84406 10.8498L1.91798 10.8218C1.91798 10.8218 1.48994 10.9595 1.04283 11.2593C0.766604 11.4313 0.528912 11.6564 0.344136 11.9208C0.124752 12.2358 -0.0517099 12.7177 0.0138671 13.2158C0.121175 14.0582 0.679175 14.5633 1.07979 14.8422C1.48517 15.1245 1.87148 15.2563 1.87148 15.2563H1.88102L7.70306 17.1755C7.96418 17.9957 9.47721 22.863 9.84087 23.9842C10.0555 24.6538 10.2641 25.0727 10.5253 25.3923C10.6516 25.5557 10.7995 25.6922 10.9771 25.8018C11.0695 25.8544 11.168 25.8959 11.2704 25.9255L11.2108 25.9115C11.2287 25.9162 11.243 25.9302 11.2561 25.9348C11.3038 25.9477 11.336 25.9523 11.3968 25.9617C12.3185 26.2347 13.0589 25.6747 13.0589 25.6747L13.1006 25.642L16.5381 22.5795L22.2993 26.9043L22.4304 26.9592C23.6311 27.4748 24.8473 27.1878 25.4899 26.6815C26.1373 26.1717 26.3889 25.5195 26.3889 25.5195L26.4306 25.4145L30.8827 3.09733C31.0091 2.54667 31.0413 2.031 30.9018 1.5305C30.7579 1.02396 30.4258 0.588308 29.9706 0.309C29.5884 0.081634 29.1451 -0.02811 28.6984 -0.00599996ZM28.578 2.38567C28.5732 2.45917 28.5875 2.451 28.5541 2.59217V2.605L24.1438 24.69C24.1247 24.7215 24.0925 24.7903 24.0043 24.8592C23.9113 24.9315 23.8374 24.977 23.4499 24.8265L16.4033 19.5403L12.1468 23.3367L13.041 17.7483L24.5539 7.24833C25.0285 6.81667 24.8699 6.72567 24.8699 6.72567C24.9033 6.196 24.1533 6.5705 24.1533 6.5705L9.63579 15.3707L9.63102 15.3473L2.67271 13.0548V13.0502L2.65483 13.0467C2.66703 13.0427 2.67897 13.038 2.6906 13.0327L2.72875 13.014L2.76571 13.0012C2.76571 13.0012 8.97883 10.4392 15.2945 7.8375C18.4565 6.53433 21.6423 5.22183 24.0925 4.20917C26.5427 3.20233 28.3538 2.46383 28.4564 2.42417C28.5541 2.38683 28.5076 2.38683 28.578 2.38683V2.38567Z" fill="white"/>
</svg>
