<svg width="27" height="28" viewBox="0 0 27 28" fill="none" xmlns="http://www.w3.org/2000/svg">
<path d="M13.1107 0C10.9732 0 5.68565 0.224 2.87315 2.912C0.848152 4.816 0.0606523 7.728 -0.0518477 11.2C-0.276848 16.688 0.960652 20.16 2.98565 21.952C3.43565 22.288 4.56065 23.184 6.69815 23.856V26.656C6.69815 26.656 6.69815 27.776 7.37315 28C7.48565 28 7.59815 28.112 7.71065 28.112C8.38565 28.112 8.94815 27.328 9.73565 26.544C10.4107 25.76 10.9732 25.2 11.3107 24.64H13.7857C15.9232 24.64 21.2107 24.416 24.0232 21.728C26.0482 19.712 26.9482 16.5055 26.9482 12.8095C26.9482 12.0255 26.9482 11.76 26.9482 11.2C26.8357 7.056 25.5982 4.256 23.9107 2.688C23.2357 2.128 20.3107 0 14.0107 0H13.1107ZM12.8857 2.128H13.8982C19.8607 2.128 22.1107 4.032 22.3357 4.256C23.6857 5.376 24.5857 6.832 24.6982 10.08C24.6982 10.08 24.6982 11.0028 24.6982 11.76C24.6982 12.5172 24.6982 12.768 24.6982 13.104C24.5857 16.464 23.9107 18.704 22.5607 20.16C20.1982 22.288 15.2482 22.4 13.8982 22.4H11.7607L9.96065 24.416L8.83565 25.648L8.61065 25.984C8.38565 26.208 8.04815 26.656 7.82315 26.768V21.728C5.57315 21.168 4.67315 20.384 4.44815 20.16C2.87315 18.816 1.97315 15.568 2.19815 11.2V10.08C2.42315 7.392 3.09815 5.6 4.22315 4.368C6.58565 2.24 11.5357 2.128 12.8857 2.128ZM12.7732 4.592C12.2107 4.592 12.2107 5.376 12.7732 5.376C16.9357 5.376 20.5357 8.176 20.5357 13.44C20.5357 14 21.3232 14 21.3232 13.44C21.3232 7.728 17.4982 4.48 12.7732 4.592ZM8.31478 5.628C8.05988 5.59759 7.80313 5.66752 7.59928 5.82288C6.47428 6.38288 5.34815 7.50512 5.68565 8.73712C5.68565 8.73712 5.91065 9.744 7.14815 11.872C7.82315 12.88 8.38565 13.776 8.94815 14.448C9.51065 15.232 10.4107 16.128 11.3107 16.8C13.1107 18.256 15.9232 19.712 17.1607 20.048C18.2857 20.384 19.5232 19.264 20.0857 18.144C20.3107 17.696 20.1982 17.136 19.7482 16.8C19.0732 16.128 17.9482 15.344 17.1607 14.896C16.5982 14.56 15.9232 14.784 15.6982 15.12L15.1357 15.792C14.9107 16.128 14.3482 16.128 14.3482 16.128C10.6357 15.12 9.62315 11.312 9.62315 11.312C9.62315 11.312 9.62315 10.864 9.96065 10.528L10.6357 9.968C10.9732 9.744 11.1982 9.072 10.8607 8.512C10.6357 8.176 10.2982 7.504 9.96065 7.168C9.62315 6.72 8.94815 5.936 8.94815 5.936C8.77747 5.76584 8.55451 5.65742 8.31478 5.628ZM13.5607 6.832C12.9982 6.72 12.8857 7.616 13.4482 7.616C16.5982 7.84 18.3982 9.968 18.2857 12.656C18.1732 13.216 19.0732 13.216 19.0732 12.656C19.1857 9.52 17.1607 6.944 13.5607 6.832ZM13.8982 8.96C13.3357 8.848 13.3357 9.744 13.8982 9.744C15.2482 9.744 15.9232 10.528 15.9232 11.872C16.0357 12.432 16.8232 12.432 16.8232 11.872C16.7107 10.08 15.6982 8.96 13.8982 8.96Z" fill="white"/>
</svg>
