<svg width="17" height="23" viewBox="0 0 17 23" fill="none" xmlns="http://www.w3.org/2000/svg">
<path d="M14.2597 2.53485C12.8112 1.08114 10.8775 0.217581 8.83191 0.110833C6.78633 0.00408643 4.77386 0.661722 3.18292 1.95682C1.59198 3.25191 0.535341 5.09265 0.216944 7.12378C-0.101454 9.1549 0.340959 11.2324 1.4588 12.9554L7.21872 21.8314C7.34689 22.0289 7.52215 22.1912 7.7286 22.3035C7.93506 22.4158 8.16617 22.4747 8.401 22.4747C8.63583 22.4747 8.86695 22.4158 9.0734 22.3035C9.27985 22.1912 9.45511 22.0289 9.58329 21.8314L15.3434 12.9554C16.3806 11.3571 16.839 9.44948 16.6417 7.5523C16.4444 5.65511 15.6034 3.88366 14.2597 2.53485ZM14.0661 12.1201L8.40103 20.8496L2.73591 12.1201C1.00184 9.44796 1.37376 5.87198 3.62024 3.61688C4.24805 2.98666 4.99338 2.48674 5.81367 2.14567C6.63396 1.8046 7.51315 1.62905 8.40103 1.62905C9.28891 1.62905 10.1681 1.8046 10.9884 2.14567C11.8087 2.48674 12.554 2.98666 13.1818 3.61688C15.4283 5.87198 15.8002 9.44796 14.0661 12.1201Z" fill="white"/>
</svg>
