<svg width="23" height="16" viewBox="0 0 23 16" fill="none" xmlns="http://www.w3.org/2000/svg">
<path d="M21.0836 0H1.9169C1.55381 0 1.20558 0.140476 0.948836 0.390524C0.69209 0.640573 0.547852 0.979711 0.547852 1.33333V14.6667C0.547852 15.0203 0.69209 15.3594 0.948836 15.6095C1.20558 15.8595 1.55381 16 1.9169 16H21.0836C21.4467 16 21.7949 15.8595 22.0516 15.6095C22.3084 15.3594 22.4526 15.0203 22.4526 14.6667V1.33333C22.4526 0.979711 22.3084 0.640573 22.0516 0.390524C21.7949 0.140476 21.4467 0 21.0836 0ZM20.0294 14.6667H3.05321L7.84487 9.84L6.85916 8.91333L1.9169 13.8933V2.34667L10.4255 10.5933C10.682 10.8417 11.029 10.9811 11.3907 10.9811C11.7524 10.9811 12.0994 10.8417 12.3559 10.5933L21.0836 2.14V13.8067L16.0455 8.9L15.0803 9.84L20.0294 14.6667ZM2.81363 1.33333H19.9746L11.3907 9.64667L2.81363 1.33333Z" fill="white"/>
</svg>
