<svg width="28" height="28" viewBox="0 0 28 28" fill="none" xmlns="http://www.w3.org/2000/svg">
<path fill-rule="evenodd" clip-rule="evenodd" d="M23.9602 4.09582C22.6666 2.79364 21.1273 1.76111 19.4318 1.05805C17.7362 0.354994 15.918 -0.00462036 14.0824 4.48142e-05C6.38556 4.48142e-05 0.119778 6.26427 0.116667 13.9643C0.116667 16.4252 0.759111 18.8269 1.98022 20.9456L0 28.1805L7.40289 26.2376C9.45061 27.3523 11.7448 27.9368 14.0762 27.9378H14.0824C21.7778 27.9378 28.0436 21.6736 28.0467 13.9736C28.052 12.1388 27.6935 10.3211 26.9921 8.62569C26.2907 6.93024 25.2602 5.39062 23.9602 4.09582ZM14.0824 25.5812H14.0778C11.9988 25.5814 9.9581 25.022 8.16978 23.9618L7.74667 23.7098L3.35378 24.8625L4.52511 20.58L4.24978 20.1414C3.08745 18.2909 2.47214 16.1495 2.47489 13.9643C2.478 7.56471 7.68444 2.35827 14.0871 2.35827C15.6119 2.35488 17.1223 2.65395 18.5308 3.23817C19.9393 3.82239 21.2179 4.68015 22.2927 5.76182C23.3732 6.83833 24.2296 8.11833 24.8125 9.52782C25.3954 10.9373 25.6931 12.4484 25.6884 13.9736C25.6853 20.3732 20.4789 25.5812 14.0824 25.5812ZM20.4493 16.8872C20.0993 16.7114 18.3851 15.8683 18.0647 15.7516C17.7458 15.6349 17.514 15.5774 17.2807 15.9258C17.0473 16.2743 16.3784 17.0598 16.1747 17.2932C15.9709 17.5265 15.7671 17.5545 15.4187 17.3803C15.0702 17.206 13.9456 16.8374 12.6124 15.6489C11.5749 14.7234 10.8749 13.5816 10.6711 13.2316C10.4673 12.8816 10.6493 12.6934 10.8251 12.5192C10.9822 12.3636 11.1736 12.1116 11.3478 11.9078C11.522 11.704 11.5796 11.5594 11.6962 11.326C11.8129 11.0927 11.7553 10.8889 11.6667 10.7147C11.5796 10.5389 10.8811 8.8216 10.5902 8.12316C10.3087 7.44649 10.0209 7.53671 9.80622 7.52738C9.5839 7.51828 9.3614 7.51413 9.13889 7.51493C8.96195 7.51944 8.78786 7.56046 8.62752 7.63541C8.46718 7.71036 8.32405 7.81763 8.20711 7.95049C7.88667 8.30049 6.986 9.1436 6.986 10.8609C6.986 12.5783 8.23667 14.238 8.41089 14.4714C8.58511 14.7047 10.8718 18.228 14.3718 19.74C15.2056 20.0994 15.8558 20.314 16.3613 20.4758C17.1967 20.7418 17.9573 20.7029 18.5593 20.6143C19.2298 20.5147 20.6236 19.7712 20.9144 18.956C21.2053 18.1409 21.2053 17.4425 21.1182 17.2963C21.0311 17.15 20.7962 17.0614 20.4493 16.8872Z" fill="white"/>
</svg>
